# This file uses centimeters as units for non-parametric coordinates.

mtllib crack.mtl
g default
v -0.700000 -0.250000 0.700000
v -0.250000 -0.250000 0.700000
v -1.000000 -0.250000 1.000000
v 0.700000 -0.250000 -0.250000
v 0.700000 -0.250000 -0.700000
v 1.000000 -0.250000 -1.000000
v 1.000000 -0.250000 -0.250000
v -0.250000 -0.250000 1.000000
v 0.700000 0.250000 -0.700000
v -0.700000 0.250000 0.700000
v -0.250000 0.250000 0.700000
v 0.700000 0.250000 -0.250000
v -1.000000 0.250000 1.000000
v 1.000000 0.250000 -1.000000
v -0.250000 0.250000 1.000000
v 1.000000 0.250000 -0.250000
v 0.250000 -0.250000 0.700000
v 0.700000 -0.250000 0.700000
v 0.700000 -0.250000 0.250000
v 1.000000 -0.250000 0.250000
v 1.000000 -0.250000 1.000000
v 0.700000 0.250000 0.700000
v 0.250000 0.250000 0.700000
v 0.250000 -0.250000 1.000000
v 0.250000 0.250000 1.000000
v 0.700000 0.250000 0.250000
v 1.000000 0.250000 1.000000
v 1.000000 0.250000 0.250000
v 0.250000 0.250000 -0.700000
v -0.700000 0.250000 0.250000
v 0.250000 0.250000 -1.000000
v -1.000000 0.250000 0.250000
v -0.700000 -0.250000 0.250000
v 0.250000 -0.250000 -0.700000
v -1.000000 -0.250000 0.250000
v 0.250000 -0.250000 -1.000000
v -0.250000 0.250000 -0.700000
v -0.700000 0.250000 -0.700000
v -0.250000 0.250000 -1.000000
v -1.000000 0.250000 -1.000000
v -1.000000 0.250000 -0.250000
v -0.700000 -0.250000 -0.250000
v -0.700000 -0.250000 -0.700000
v -0.250000 -0.250000 -0.700000
v -1.000000 -0.250000 -1.000000
v -0.250000 -0.250000 -1.000000
v -1.000000 -0.250000 -0.250000
v -0.700000 0.250000 -0.250000
vt 0.412500 0.962500
vt 0.468750 0.962500
vt 0.375000 1.000000
vt 0.587500 0.843750
vt 0.587500 0.787500
vt 0.455357 0.062500
vt 0.375000 0.062500
vt 0.625000 0.750000
vt 0.625000 0.843750
vt 0.468750 1.000000
vt 0.875000 0.000000
vt 0.781250 0.000000
vt 0.375000 0.000000
vt 0.468750 0.000000
vt 0.875000 0.062500
vt 0.794643 0.062500
vt 0.875000 0.187500
vt 0.375000 0.187500
vt 0.455357 0.187500
vt 0.794643 0.187500
vt 0.375000 0.250000
vt 0.875000 0.250000
vt 0.468750 0.250000
vt 0.781250 0.250000
vt 0.625000 0.406250
vt 0.625000 0.500000
vt 0.531250 0.962500
vt 0.587500 0.962500
vt 0.705357 0.062500
vt 0.625000 0.062500
vt 0.468750 0.287500
vt 0.412500 0.287500
vt 0.587500 0.462500
vt 0.587500 0.406250
vt 0.625000 0.906250
vt 0.625000 1.000000
vt 0.625000 0.187500
vt 0.544643 0.187500
vt 0.625000 0.000000
vt 0.718750 0.000000
vt 0.531250 0.000000
vt 0.587500 0.287500
vt 0.531250 0.287500
vt 0.531250 0.250000
vt 0.587500 0.343750
vt 0.625000 0.250000
vt 0.718750 0.250000
vt 0.587500 0.906250
vt 0.544643 0.062500
vt 0.531250 1.000000
vt 0.705357 0.187500
vt 0.625000 0.343750
vt 0.441667 0.593750
vt 0.416667 0.593750
vt 0.416667 0.656250
vt 0.441667 0.656250
vt 0.583333 0.656250
vt 0.583333 0.593750
vt 0.558333 0.593750
vt 0.558333 0.656250
vt 0.558333 0.093750
vt 0.558333 0.156250
vt 0.583333 0.156250
vt 0.583333 0.093750
vt 0.435049 0.156250
vt 0.441667 0.156250
vt 0.441667 0.093750
vt 0.416667 0.093750
vt 0.531250 0.462500
vt 0.412500 0.343750
vt 0.294643 0.187500
vt 0.531250 0.500000
vt 0.375000 0.343750
vt 0.281250 0.250000
vt 0.625000 0.562500
vt 0.544643 0.562500
vt 0.625000 0.687500
vt 0.294643 0.062500
vt 0.544643 0.687500
vt 0.281250 0.000000
vt 0.531250 0.750000
vt 0.375000 0.906250
vt 0.455357 0.562500
vt 0.375000 0.562500
vt 0.531250 0.787500
vt 0.412500 0.906250
vt 0.468750 0.500000
vt 0.375000 0.500000
vt 0.375000 0.406250
vt 0.205357 0.062500
vt 0.125000 0.062500
vt 0.125000 0.250000
vt 0.218750 0.250000
vt 0.412500 0.787500
vt 0.468750 0.787500
vt 0.412500 0.843750
vt 0.375000 0.750000
vt 0.468750 0.750000
vt 0.125000 0.000000
vt 0.218750 0.000000
vt 0.412500 0.462500
vt 0.468750 0.462500
vt 0.412500 0.406250
vt 0.125000 0.187500
vt 0.205357 0.187500
vt 0.375000 0.687500
vt 0.455357 0.687500
vt 0.375000 0.843750
vt 0.416667 0.093750
vt 0.416667 0.156250
vt 0.441667 0.156250
vt 0.441667 0.093750
vt 0.572304 0.093750
vt 0.558333 0.093750
vt 0.558333 0.156250
vt 0.583333 0.156250
vt 0.583333 0.632813
vt 0.583333 0.593750
vt 0.558333 0.593750
vt 0.558333 0.656250
vt 0.416667 0.656250
vt 0.441667 0.656250
vt 0.441667 0.593750
vt 0.416667 0.593750
vn 0.000000 -1.000000 0.000000
vn 0.000000 -1.000000 0.000000
vn 0.000000 -1.000000 0.000000
vn 0.000000 -1.000000 0.000000
vn 0.000000 -1.000000 0.000000
vn 0.000000 -1.000000 0.000000
vn 0.000000 -1.000000 0.000000
vn 0.000000 -1.000000 0.000000
vn -1.000000 0.000000 0.000000
vn -1.000000 0.000000 0.000000
vn -1.000000 0.000000 0.000000
vn -1.000000 0.000000 0.000000
vn 0.000000 0.000000 -1.000000
vn 0.000000 0.000000 -1.000000
vn 0.000000 0.000000 -1.000000
vn 0.000000 0.000000 -1.000000
vn 0.000000 0.000000 1.000000
vn 0.000000 0.000000 1.000000
vn 0.000000 0.000000 1.000000
vn 1.000000 0.000000 0.000000
vn 1.000000 0.000000 0.000000
vn 1.000000 0.000000 0.000000
vn 1.000000 0.000000 0.000000
vn 0.000000 0.000000 1.000000
vn 0.000000 1.000000 0.000000
vn 0.000000 1.000000 0.000000
vn 0.000000 1.000000 0.000000
vn 0.000000 1.000000 0.000000
vn 0.000000 1.000000 0.000000
vn 0.000000 1.000000 0.000000
vn 0.000000 1.000000 0.000000
vn 0.000000 1.000000 0.000000
vn 0.000000 1.000000 0.000000
vn 0.000000 1.000000 0.000000
vn 0.000000 1.000000 0.000000
vn 0.000000 1.000000 0.000000
vn 0.000000 1.000000 0.000000
vn 0.000000 1.000000 0.000000
vn 1.000000 0.000000 0.000000
vn 1.000000 0.000000 0.000000
vn 1.000000 0.000000 0.000000
vn 0.000000 -1.000000 0.000000
vn 0.000000 -1.000000 0.000000
vn 0.000000 -1.000000 0.000000
vn 0.000000 -1.000000 0.000000
vn 0.000000 0.000000 -1.000000
vn 0.000000 0.000000 -1.000000
vn 0.000000 0.000000 -1.000000
vn 0.000000 0.000000 -1.000000
vn 0.000000 -1.000000 0.000000
vn 0.000000 -1.000000 0.000000
vn 0.000000 -1.000000 0.000000
vn 0.000000 -1.000000 0.000000
vn -1.000000 0.000000 0.000000
vn -1.000000 0.000000 0.000000
vn -1.000000 0.000000 0.000000
vn -1.000000 0.000000 0.000000
vn 1.000000 0.000000 0.000000
vn 0.000000 0.000000 1.000000
vn 0.000000 0.000000 1.000000
vn 0.000000 0.000000 1.000000
vn 0.000000 0.000000 1.000000
vn 0.000000 1.000000 0.000000
vn 0.000000 1.000000 0.000000
vn 1.000000 0.000000 0.000000
vn 1.000000 0.000000 0.000000
vn 1.000000 0.000000 0.000000
vn 1.000000 0.000000 0.000000
vn 0.000000 0.000000 1.000000
vn 0.000000 0.000000 1.000000
vn 0.000000 0.000000 1.000000
vn 0.000000 0.000000 1.000000
vn 0.000000 0.000000 -1.000000
vn 0.000000 0.000000 -1.000000
vn 0.000000 0.000000 -1.000000
vn 0.000000 0.000000 -1.000000
vn -1.000000 0.000000 0.000000
vn -1.000000 0.000000 0.000000
vn -1.000000 0.000000 0.000000
vn -1.000000 0.000000 0.000000
vn 0.000000 1.000000 0.000000
vn 0.000000 1.000000 0.000000
vn 0.000000 1.000000 0.000000
vn 0.000000 1.000000 0.000000
vn 0.000000 1.000000 0.000000
vn 0.000000 1.000000 0.000000
vn 0.000000 1.000000 0.000000
vn 0.000000 1.000000 0.000000
vn 0.000000 0.000000 1.000000
vn 0.000000 0.000000 1.000000
vn 0.000000 0.000000 1.000000
vn 0.000000 0.000000 1.000000
vn 1.000000 0.000000 0.000000
vn 1.000000 0.000000 0.000000
vn 1.000000 0.000000 0.000000
vn 1.000000 0.000000 0.000000
vn -1.000000 0.000000 0.000000
vn -1.000000 0.000000 0.000000
vn -1.000000 0.000000 0.000000
vn -1.000000 0.000000 0.000000
vn 0.000000 0.000000 -1.000000
vn 0.000000 0.000000 -1.000000
vn 0.000000 0.000000 -1.000000
vn 0.000000 0.000000 -1.000000
vn 0.000000 -1.000000 0.000000
vn 0.000000 -1.000000 0.000000
vn 0.000000 -1.000000 0.000000
vn 0.000000 -1.000000 0.000000
vn 0.000000 -1.000000 0.000000
vn 0.000000 -1.000000 0.000000
vn 0.000000 -1.000000 0.000000
vn 0.000000 -1.000000 0.000000
vn 0.000000 1.000000 0.000000
vn 0.000000 1.000000 0.000000
vn 0.000000 1.000000 0.000000
vn -1.000000 0.000000 0.000000
vn -1.000000 0.000000 0.000000
vn -1.000000 0.000000 0.000000
vn 0.000000 1.000000 0.000000
vn 0.000000 1.000000 0.000000
vn 0.000000 1.000000 0.000000
vn 0.000000 1.000000 0.000000
vn 0.000000 1.000000 0.000000
vn 1.000000 0.000000 0.000000
vn 1.000000 0.000000 0.000000
vn 1.000000 0.000000 0.000000
vn 1.000000 0.000000 0.000000
vn 0.000000 0.000000 1.000000
vn 0.000000 0.000000 1.000000
vn 0.000000 0.000000 1.000000
vn 0.000000 0.000000 1.000000
vn 0.000000 0.000000 -1.000000
vn 0.000000 0.000000 -1.000000
vn 0.000000 0.000000 -1.000000
vn 0.000000 0.000000 -1.000000
vn -1.000000 0.000000 0.000000
vn 0.000000 -1.000000 0.000000
vn 0.000000 -1.000000 0.000000
vn 0.000000 -1.000000 0.000000
vn 0.000000 -1.000000 0.000000
vn 0.000000 -1.000000 0.000000
vn 0.000000 -1.000000 0.000000
vn 0.000000 -1.000000 0.000000
vn 0.000000 -1.000000 0.000000
vn 0.000000 0.000000 -1.000000
vn 0.000000 0.000000 -1.000000
vn 0.000000 0.000000 -1.000000
vn 0.000000 0.000000 -1.000000
vn -1.000000 0.000000 0.000000
vn -1.000000 0.000000 0.000000
vn -1.000000 0.000000 0.000000
vn -1.000000 0.000000 0.000000
vn 1.000000 0.000000 0.000000
vn 1.000000 0.000000 0.000000
vn 1.000000 0.000000 0.000000
vn 1.000000 0.000000 0.000000
vn 0.000000 0.000000 1.000000
vn 0.000000 0.000000 1.000000
vn 0.000000 0.000000 1.000000
vn 0.000000 0.000000 1.000000
s 1
g cubeHole:pCube5
usemtl initialShadingGroup
f 1/1/1 8/10/2 3/3/3
s 2
f 6/8/4 7/9/5 5/5/6
f 5/5/6 7/9/5 4/4/7
s 1
f 8/10/2 1/1/1 2/2/8
s 3
f 4/16/9 12/20/10 5/15/11
f 5/15/11 12/20/10 9/17/12
s 4
f 1/7/13 10/18/14 2/6/15
f 2/6/15 10/18/14 11/19/16
s 5
f 8/14/17 13/21/18 3/13/19
s 6
f 7/12/20 6/11/21 16/24/22
f 16/24/22 6/11/21 14/22/23
s 5
f 13/21/18 8/14/17 15/23/24
s 7
f 10/32/25 13/21/26 15/23/27
f 11/31/28 10/32/25 15/23/27
s 8
f 14/26/29 9/33/30 16/25/31
f 16/25/31 9/33/30 12/34/32
s 9
f 22/42/33 23/43/34 25/44/35
s 10
f 22/42/36 28/52/37 26/45/38
s 11
f 27/46/39 20/40/40 28/47/41
s 12
f 19/48/42 20/35/43 18/28/44
f 18/28/44 20/35/43 21/36/45
s 13
f 17/49/46 23/38/47 18/30/48
f 18/30/48 23/38/47 22/37/49
s 14
f 21/36/50 24/50/51 18/28/52
f 18/28/52 24/50/51 17/27/53
s 15
f 18/30/54 22/37/55 19/29/56
f 19/29/56 22/37/55 26/51/57
s 11
f 20/40/40 27/46/39 21/39/58
s 16
f 24/41/59 21/39/60 25/44/61
f 25/44/61 21/39/60 27/46/62
s 9
f 27/46/63 22/42/33 25/44/35
s 10
f 27/46/64 28/52/37 22/42/36
s 17
f 15/54/65 8/55/66 11/53/67
f 11/53/67 8/55/66 2/56/68
s 18
f 12/59/69 4/60/70 16/58/71
f 16/58/71 4/60/70 7/57/72
s 19
f 26/62/73 28/63/74 19/61/75
f 28/63/74 20/64/76 19/61/75
s 20
f 23/66/77 17/67/78 25/65/79
f 25/65/79 17/67/78 24/68/80
s 21
f 29/69/81 9/33/82 31/72/83
f 14/26/84 31/72/83 9/33/82
s 22
f 13/21/85 10/32/86 32/73/87
f 32/73/87 10/32/86 30/70/88
s 23
f 29/76/89 34/79/90 9/75/91
f 9/75/91 34/79/90 5/77/92
s 24
f 33/78/93 30/71/94 1/7/95
f 1/7/95 30/71/94 10/18/96
s 25
f 35/80/97 3/13/98 32/74/99
f 32/74/99 3/13/98 13/21/100
s 26
f 31/72/101 14/26/102 36/81/103
f 36/81/103 14/26/102 6/8/104
s 27
f 1/1/105 3/3/106 35/82/107
s 28
f 6/8/108 5/5/109 36/81/110
f 36/81/110 5/5/109 34/85/111
s 27
f 33/86/112 1/1/105 35/82/107
s 29
f 39/87/113 38/101/114 37/102/115
s 30
f 40/92/116 47/100/117 41/93/118
s 29
f 40/88/119 38/101/114 39/87/113
s 31
f 48/103/120 38/101/121 41/89/122
f 41/89/122 38/101/121 40/88/123
s 32
f 43/91/124 38/104/125 42/90/126
f 42/90/126 38/104/125 48/105/127
s 33
f 38/84/128 43/106/129 37/83/130
f 37/83/130 43/106/129 44/107/131
s 34
f 46/98/132 45/97/133 39/87/134
f 39/87/134 45/97/133 40/88/135
s 30
f 47/100/117 40/92/116 45/99/136
s 35
f 45/97/137 46/98/138 43/94/139
f 43/94/139 46/98/138 44/95/140
s 36
f 45/97/141 43/94/142 47/108/143
f 47/108/143 43/94/142 42/96/144
s 37
f 30/111/145 33/112/146 32/110/147
f 32/110/147 33/112/146 35/109/148
s 38
f 29/115/149 31/116/150 34/114/151
f 31/116/150 36/113/152 34/114/151
s 39
f 37/119/153 44/120/154 39/118/155
f 39/118/155 44/120/154 46/117/156
s 40
f 42/122/157 48/123/158 47/121/159
f 48/123/158 41/124/160 47/121/159
