# This file uses centimeters as units for non-parametric coordinates.

mtllib cubeHole.mtl
g default
v -1.000000 0.250000 1.000000
v 1.000000 0.250000 1.000000
v 0.700000 0.250000 0.700000
v -0.700000 0.250000 0.700000
v -0.700000 0.250000 -0.700000
v -1.000000 0.250000 -1.000000
v 1.000000 0.250000 -1.000000
v 0.700000 0.250000 -0.700000
v 0.700000 -0.250000 0.700000
v -0.700000 -0.250000 0.700000
v 0.700000 -0.250000 -0.700000
v -1.000000 -0.250000 1.000000
v 1.000000 -0.250000 1.000000
v 1.000000 -0.250000 -1.000000
v -0.700000 -0.250000 -0.700000
v -1.000000 -0.250000 -1.000000
v 1.000000 0.000000 0.000000
v -1.000000 0.000000 0.000000
v 0.000000 0.000000 -1.000000
v 0.000000 0.000000 1.000000
vt 0.375000 0.250000
vt 0.625000 0.250000
vt 0.587500 0.287500
vt 0.412500 0.287500
vt 0.412500 0.462500
vt 0.375000 0.500000
vt 0.625000 0.500000
vt 0.587500 0.462500
vt 0.625000 0.062500
vt 0.375000 0.062500
vt 0.375000 0.187500
vt 0.625000 0.187500
vt 0.875000 0.062500
vt 0.875000 0.187500
vt 0.375000 0.000000
vt 0.625000 0.000000
vt 0.875000 0.000000
vt 0.875000 0.250000
vt 0.587500 0.962500
vt 0.587500 0.787500
vt 0.412500 0.787500
vt 0.375000 0.750000
vt 0.625000 0.750000
vt 0.625000 1.000000
vt 0.412500 0.962500
vt 0.375000 1.000000
vt 0.125000 0.062500
vt 0.125000 0.187500
vt 0.625000 0.562500
vt 0.375000 0.562500
vt 0.375000 0.687500
vt 0.625000 0.687500
vt 0.125000 0.000000
vt 0.125000 0.250000
vt 0.750000 0.125000
vt 0.250000 0.125000
vt 0.500000 0.625000
vt 0.500000 0.125000
vn 0.000000 1.000000 -0.000000
vn 0.000000 1.000000 -0.000000
vn 0.000000 1.000000 -0.000000
vn 0.000000 1.000000 0.000000
vn 0.000000 1.000000 0.000000
vn 0.000000 1.000000 0.000000
vn 0.000000 1.000000 0.000000
vn 0.000000 1.000000 0.000000
vn 0.000000 0.000000 -1.000000
vn 0.000000 0.000000 -1.000000
vn 0.000000 0.000000 -1.000000
vn 0.000000 0.000000 -1.000000
vn -1.000000 0.000000 0.000000
vn -1.000000 0.000000 0.000000
vn -1.000000 0.000000 0.000000
vn -1.000000 0.000000 0.000000
vn 0.000000 0.000000 1.000000
vn 0.000000 0.000000 1.000000
vn 0.000000 0.000000 1.000000
vn 0.000000 0.000000 1.000000
vn 1.000000 0.000000 0.000000
vn 1.000000 0.000000 0.000000
vn 1.000000 0.000000 0.000000
vn 1.000000 0.000000 0.000000
vn 0.000000 -1.000000 0.000000
vn 0.000000 -1.000000 0.000000
vn 0.000000 -1.000000 0.000000
vn 0.000000 -1.000000 0.000000
vn 0.000000 -1.000000 -0.000000
vn 0.000000 -1.000000 -0.000000
vn 0.000000 -1.000000 0.000000
vn 0.000000 -1.000000 0.000000
vn 1.000000 0.000000 0.000000
vn 1.000000 0.000000 0.000000
vn 1.000000 0.000000 0.000000
vn 1.000000 0.000000 0.000000
vn 0.000000 0.000000 1.000000
vn 0.000000 0.000000 1.000000
vn 0.000000 0.000000 1.000000
vn 0.000000 0.000000 1.000000
vn -1.000000 0.000000 0.000000
vn -1.000000 0.000000 0.000000
vn -1.000000 0.000000 0.000000
vn -1.000000 0.000000 0.000000
vn 0.000000 0.000000 -1.000000
vn 0.000000 0.000000 -1.000000
vn 0.000000 0.000000 -1.000000
vn 0.000000 0.000000 -1.000000
vn 1.000000 0.000000 0.000000
vn -1.000000 0.000000 0.000000
vn 0.000000 0.000000 -1.000000
vn 0.000000 0.000000 1.000000
s 1
g pCube3
usemtl initialShadingGroup
f 2/2/1 3/3/2 1/1/3
f 3/3/2 4/4/4 1/1/3
f 1/1/3 4/4/4 6/6/5
f 4/4/4 5/5/6 6/6/5
f 2/2/1 7/7/7 3/3/2
f 3/3/2 7/7/7 8/8/8
f 7/7/7 6/6/5 8/8/8
f 6/6/5 5/5/6 8/8/8
s 2
f 9/9/9 10/10/10 3/12/11
f 3/12/11 10/10/10 4/11/12
s 3
f 11/13/13 9/9/14 8/14/15
f 8/14/15 9/9/14 3/12/16
s 4
f 12/15/17 20/38/18 1/1/19
f 1/1/19 20/38/18 2/2/20
s 5
f 13/16/21 17/35/22 2/2/23
f 2/2/23 17/35/22 7/18/24
s 6
f 16/22/25 14/23/26 15/21/27
f 15/21/27 14/23/26 11/20/28
f 14/23/26 13/24/29 11/20/28
f 9/19/30 11/20/28 13/24/29
f 16/22/25 15/21/27 12/26/31
f 15/21/27 10/25/32 12/26/31
f 13/24/29 12/26/31 9/19/30
f 10/25/32 9/19/30 12/26/31
s 7
f 10/10/33 15/27/34 4/11/35
f 4/11/35 15/27/34 5/28/36
s 8
f 8/29/37 5/30/38 11/32/39
f 11/32/39 5/30/38 15/31/40
s 9
f 16/33/41 18/36/42 6/34/43
f 6/34/43 18/36/42 1/1/44
s 10
f 6/6/45 19/37/46 16/22/47
f 16/22/47 19/37/46 14/23/48
s 5
f 14/17/49 17/35/22 13/16/21
f 17/35/22 14/17/49 7/18/24
s 9
f 12/15/50 18/36/42 16/33/41
f 18/36/42 12/15/50 1/1/44
s 10
f 7/7/51 19/37/46 6/6/45
f 19/37/46 7/7/51 14/23/48
s 4
f 13/16/52 20/38/18 12/15/17
f 20/38/18 13/16/52 2/2/20
