# This file uses centimeters as units for non-parametric coordinates.

mtllib GeoBox.mtl
g default
v -0.400000 0.400000 -0.400000
v -0.400000 0.500000 -0.400000
v -0.400000 0.500000 0.400000
v -0.400000 0.400000 0.400000
v 0.400000 0.500000 -0.400000
v 0.400000 0.400000 -0.400000
v 0.500000 -0.400000 -0.400000
v 0.500000 0.400000 -0.400000
v 0.400000 -0.400000 -0.400000
v 0.400000 -0.400000 0.400000
v 0.500000 -0.400000 0.400000
v -0.400000 0.400000 0.500000
v -0.400000 -0.400000 0.500000
v -0.400000 -0.400000 0.400000
v 0.400000 -0.400000 0.500000
v 0.400000 0.500000 0.400000
v 0.400000 0.400000 0.400000
v 0.500000 0.400000 0.400000
v 0.400000 0.400000 0.500000
v -0.500000 0.500000 0.500000
v 0.500000 0.500000 0.500000
v -0.500000 0.500000 -0.500000
v 0.500000 0.500000 -0.500000
v -0.500000 -0.500000 0.500000
v 0.500000 -0.500000 0.500000
v 0.500000 -0.500000 -0.500000
v -0.500000 0.400000 0.400000
v -0.500000 0.400000 -0.400000
v 0.400000 -0.500000 0.400000
v -0.400000 -0.500000 0.400000
v 0.400000 -0.500000 -0.400000
v -0.500000 -0.400000 0.400000
v -0.400000 0.400000 -0.500000
v 0.400000 0.400000 -0.500000
v 0.400000 -0.400000 -0.500000
v -0.400000 -0.400000 -0.400000
v -0.500000 -0.400000 -0.400000
v -0.400000 -0.500000 -0.400000
v -0.400000 -0.400000 -0.500000
v -0.500000 -0.500000 -0.500000
v 0.000000 0.500000 0.500000
v 0.500000 0.500000 0.000000
v 0.000000 -0.500000 0.500000
v -0.500000 -0.500000 0.000000
v -0.500000 0.000000 0.500000
v 0.000000 -0.500000 -0.500000
v 0.500000 0.000000 -0.500000
v 0.500000 -0.500000 0.000000
v -0.500000 0.000000 -0.500000
v -0.500000 0.500000 0.000000
v 0.500000 0.000000 0.500000
v 0.000000 0.500000 -0.500000
v 0.400000 -0.500000 0.000000
v -0.500000 0.000000 0.400000
v 0.000000 -0.500000 0.400000
v 0.000000 0.400000 -0.500000
v -0.500000 0.400000 0.000000
v 0.400000 0.000000 -0.500000
v 0.000000 -0.400000 0.400000
v -0.400000 0.000000 -0.400000
v -0.500000 0.000000 -0.400000
v 0.000000 -0.400000 0.500000
v -0.400000 -0.500000 0.000000
v -0.400000 -0.400000 0.000000
v 0.000000 0.400000 0.400000
v 0.000000 -0.400000 -0.400000
v 0.000000 -0.500000 -0.400000
v 0.000000 0.500000 0.400000
v -0.500000 -0.400000 0.000000
v 0.400000 0.400000 0.000000
v -0.400000 0.000000 -0.500000
v 0.400000 0.500000 0.000000
v 0.000000 -0.400000 -0.500000
v -0.400000 0.000000 0.400000
v -0.400000 0.000000 0.500000
v 0.500000 0.400000 0.000000
v 0.500000 -0.400000 0.000000
v 0.400000 -0.400000 0.000000
v 0.400000 0.000000 0.400000
v 0.400000 0.000000 -0.400000
v 0.500000 0.000000 -0.400000
v 0.500000 0.000000 0.400000
v 0.000000 0.400000 -0.400000
v 0.000000 0.500000 -0.400000
v 0.000000 0.400000 0.500000
v -0.400000 0.500000 0.000000
v -0.400000 0.400000 0.000000
v 0.400000 0.000000 0.500000
vt 0.125000 0.175000
vt 0.125000 0.187500
vt 0.375000 0.187500
vt 0.375000 0.175000
vt 0.625000 0.562500
vt 0.375000 0.562500
vt 0.375000 0.575000
vt 0.625000 0.575000
vt 0.625000 0.562500
vt 0.375000 0.562500
vt 0.375000 0.575000
vt 0.625000 0.575000
vt 0.875000 0.175000
vt 0.625000 0.175000
vt 0.625000 0.187500
vt 0.875000 0.187500
vt 0.375000 0.062500
vt 0.125000 0.062500
vt 0.125000 0.075000
vt 0.375000 0.075000
vt 0.625000 0.675000
vt 0.375000 0.675000
vt 0.375000 0.687500
vt 0.625000 0.687500
vt 0.625000 0.187500
vt 0.625000 0.175000
vt 0.875000 0.187500
vt 0.875000 0.175000
vt 0.375000 0.175000
vt 0.125000 0.175000
vt 0.125000 0.187500
vt 0.375000 0.187500
vt 0.625000 0.062500
vt 0.625000 0.075000
vt 0.875000 0.062500
vt 0.875000 0.075000
vt 0.375000 0.250000
vt 0.625000 0.250000
vt 0.600000 0.275000
vt 0.400000 0.275000
vt 0.400000 0.475000
vt 0.375000 0.500000
vt 0.625000 0.500000
vt 0.600000 0.475000
vt 0.600000 0.225000
vt 0.600000 0.025000
vt 0.400000 0.025000
vt 0.375000 0.000000
vt 0.625000 0.000000
vt 0.400000 0.225000
vt 0.650000 0.225000
vt 0.850000 0.225000
vt 0.850000 0.025000
vt 0.875000 0.000000
vt 0.875000 0.250000
vt 0.650000 0.025000
vt 0.375000 0.062500
vt 0.125000 0.062500
vt 0.125000 0.075000
vt 0.625000 0.062500
vt 0.375000 0.062500
vt 0.375000 0.075000
vt 0.625000 0.075000
vt 0.875000 0.062500
vt 0.875000 0.075000
vt 0.625000 0.062500
vt 0.625000 0.075000
vt 0.625000 0.175000
vt 0.375000 0.175000
vt 0.375000 0.187500
vt 0.625000 0.187500
vt 0.875000 0.187500
vt 0.625000 0.675000
vt 0.375000 0.675000
vt 0.375000 0.687500
vt 0.625000 0.687500
vt 0.125000 0.062500
vt 0.125000 0.075000
vt 0.375000 0.675000
vt 0.375000 0.687500
vt 0.625000 0.687500
vt 0.625000 0.675000
vt 0.875000 0.062500
vt 0.875000 0.075000
vt 0.125000 0.175000
vt 0.125000 0.187500
vt 0.625000 0.562500
vt 0.375000 0.562500
vt 0.375000 0.575000
vt 0.125000 0.000000
vt 0.150000 0.025000
vt 0.150000 0.225000
vt 0.350000 0.225000
vt 0.125000 0.250000
vt 0.600000 0.525000
vt 0.400000 0.525000
vt 0.400000 0.725000
vt 0.375000 0.750000
vt 0.625000 0.750000
vt 0.600000 0.725000
vt 0.350000 0.025000
vt 0.400000 0.775000
vt 0.400000 0.975000
vt 0.600000 0.975000
vt 0.625000 1.000000
vt 0.375000 1.000000
vt 0.600000 0.775000
vt 0.500000 0.250000
vt 0.625000 0.375000
vt 0.750000 0.250000
vt 0.500000 0.000000
vt 0.500000 1.000000
vt 0.250000 0.000000
vt 0.375000 0.875000
vt 0.375000 0.125000
vt 0.500000 0.750000
vt 0.875000 0.125000
vt 0.625000 0.625000
vt 0.750000 0.000000
vt 0.625000 0.875000
vt 0.125000 0.125000
vt 0.375000 0.625000
vt 0.375000 0.375000
vt 0.250000 0.250000
vt 0.625000 0.125000
vt 0.500000 0.500000
vt 0.750000 0.062500
vt 0.600000 0.875000
vt 0.500000 0.062500
vt 0.350000 0.125000
vt 0.500000 0.062500
vt 0.500000 0.975000
vt 0.500000 0.187500
vt 0.500000 0.525000
vt 0.250000 0.062500
vt 0.250000 0.225000
vt 0.750000 0.187500
vt 0.600000 0.625000
vt 0.500000 0.675000
vt 0.500000 0.075000
vt 0.500000 0.675000
vt 0.250000 0.175000
vt 0.500000 0.687500
vt 0.150000 0.125000
vt 0.500000 0.687500
vt 0.500000 0.025000
vt 0.250000 0.062500
vt 0.400000 0.875000
vt 0.250000 0.075000
vt 0.750000 0.075000
vt 0.500000 0.175000
vt 0.500000 0.075000
vt 0.500000 0.675000
vt 0.500000 0.575000
vt 0.500000 0.687500
vt 0.500000 0.775000
vt 0.500000 0.187500
vt 0.500000 0.275000
vt 0.750000 0.062500
vt 0.250000 0.025000
vt 0.750000 0.175000
vt 0.250000 0.175000
vt 0.250000 0.187500
vt 0.400000 0.625000
vt 0.750000 0.187500
vt 0.600000 0.375000
vt 0.500000 0.562500
vt 0.500000 0.725000
vt 0.250000 0.075000
vt 0.500000 0.075000
vt 0.250000 0.062500
vt 0.400000 0.125000
vt 0.250000 0.187500
vt 0.750000 0.225000
vt 0.750000 0.187500
vt 0.750000 0.025000
vt 0.750000 0.175000
vt 0.750000 0.075000
vt 0.500000 0.175000
vt 0.750000 0.075000
vt 0.500000 0.575000
vt 0.750000 0.175000
vt 0.500000 0.562500
vt 0.850000 0.125000
vt 0.500000 0.187500
vt 0.650000 0.125000
vt 0.500000 0.575000
vt 0.500000 0.175000
vt 0.500000 0.562500
vt 0.500000 0.475000
vt 0.500000 0.062500
vt 0.500000 0.225000
vt 0.250000 0.187500
vt 0.400000 0.375000
vt 0.250000 0.175000
vt 0.250000 0.075000
vt 0.750000 0.062500
vt 0.600000 0.125000
vn 1.000000 0.000000 0.000000
vn 1.000000 0.000000 0.000000
vn 1.000000 0.000000 0.000000
vn 0.000000 0.000000 1.000000
vn 0.000000 0.000000 1.000000
vn 0.000000 0.000000 1.000000
vn 0.000000 0.000000 1.000000
vn 0.000000 0.000000 1.000000
vn 0.000000 0.000000 1.000000
vn 0.000000 0.000000 1.000000
vn 0.000000 0.000000 1.000000
vn 0.000000 1.000000 0.000000
vn 0.000000 1.000000 0.000000
vn 0.000000 1.000000 0.000000
vn 1.000000 0.000000 0.000000
vn 1.000000 0.000000 0.000000
vn 1.000000 0.000000 0.000000
vn 1.000000 0.000000 0.000000
vn 0.000000 1.000000 0.000000
vn 0.000000 1.000000 0.000000
vn 0.000000 1.000000 0.000000
vn 0.000000 1.000000 0.000000
vn 0.000000 0.000000 -1.000000
vn 0.000000 0.000000 -1.000000
vn 0.000000 0.000000 -1.000000
vn -1.000000 0.000000 0.000000
vn -1.000000 0.000000 0.000000
vn -1.000000 0.000000 0.000000
vn 0.000000 -1.000000 0.000000
vn 0.000000 -1.000000 0.000000
vn 0.000000 -1.000000 0.000000
vn 0.000000 -1.000000 0.000000
vn 0.000000 0.000000 -1.000000
vn 0.000000 0.000000 -1.000000
vn 0.000000 0.000000 -1.000000
vn 0.000000 -1.000000 0.000000
vn 0.000000 -1.000000 0.000000
vn 0.000000 -1.000000 0.000000
vn -1.000000 0.000000 0.000000
vn -1.000000 0.000000 0.000000
vn -1.000000 0.000000 0.000000
vn -1.000000 0.000000 0.000000
vn -1.000000 0.000000 0.000000
vn 0.000000 1.000000 0.000000
vn 0.000000 1.000000 0.000000
vn 0.000000 1.000000 0.000000
vn 0.000000 1.000000 0.000000
vn 0.000000 1.000000 0.000000
vn 0.000000 1.000000 0.000000
vn 0.000000 1.000000 0.000000
vn 0.000000 1.000000 0.000000
vn 0.000000 1.000000 0.000000
vn 0.000000 1.000000 0.000000
vn 0.000000 1.000000 0.000000
vn 0.000000 1.000000 0.000000
vn 0.000000 1.000000 0.000000
vn 0.000000 0.000000 1.000000
vn 0.000000 0.000000 1.000000
vn 0.000000 0.000000 1.000000
vn -0.000000 0.000000 1.000000
vn 0.000000 0.000000 1.000000
vn -0.000000 0.000000 1.000000
vn 0.000000 0.000000 1.000000
vn 0.000000 0.000000 1.000000
vn 0.000000 0.000000 1.000000
vn 0.000000 0.000000 1.000000
vn 0.000000 0.000000 1.000000
vn 0.000000 0.000000 1.000000
vn 0.000000 0.000000 1.000000
vn 0.000000 0.000000 1.000000
vn 1.000000 0.000000 0.000000
vn 1.000000 0.000000 0.000000
vn 1.000000 0.000000 0.000000
vn 1.000000 -0.000000 0.000000
vn 1.000000 -0.000000 0.000000
vn 1.000000 -0.000000 0.000000
vn 1.000000 0.000000 0.000000
vn 1.000000 0.000000 0.000000
vn 1.000000 0.000000 0.000000
vn 1.000000 0.000000 0.000000
vn 1.000000 0.000000 0.000000
vn 1.000000 0.000000 0.000000
vn 1.000000 0.000000 0.000000
vn 1.000000 0.000000 0.000000
vn 0.000000 -1.000000 0.000000
vn 0.000000 -1.000000 0.000000
vn 0.000000 -1.000000 0.000000
vn 0.000000 0.000000 -1.000000
vn 0.000000 0.000000 -1.000000
vn 0.000000 0.000000 -1.000000
vn 0.000000 0.000000 -1.000000
vn 0.000000 0.000000 -1.000000
vn -1.000000 0.000000 0.000000
vn -1.000000 0.000000 0.000000
vn -1.000000 0.000000 0.000000
vn -1.000000 0.000000 0.000000
vn -1.000000 0.000000 0.000000
vn 0.000000 0.000000 -1.000000
vn 0.000000 0.000000 -1.000000
vn 0.000000 0.000000 -1.000000
vn 0.000000 -1.000000 0.000000
vn 0.000000 -1.000000 0.000000
vn 0.000000 -1.000000 0.000000
vn 0.000000 -1.000000 0.000000
vn -1.000000 0.000000 0.000000
vn -1.000000 0.000000 0.000000
vn -1.000000 0.000000 0.000000
vn -1.000000 0.000000 0.000000
vn 0.000000 0.000000 1.000000
vn 0.000000 0.000000 1.000000
vn 0.000000 0.000000 1.000000
vn 0.000000 0.000000 1.000000
vn 1.000000 0.000000 0.000000
vn 1.000000 0.000000 0.000000
vn 1.000000 0.000000 0.000000
vn 0.000000 0.000000 1.000000
vn 0.000000 0.000000 1.000000
vn 0.000000 0.000000 1.000000
vn 0.000000 0.000000 1.000000
vn 0.000000 0.000000 1.000000
vn 0.000000 1.000000 0.000000
vn 0.000000 1.000000 0.000000
vn 0.000000 1.000000 0.000000
vn 1.000000 0.000000 0.000000
vn 1.000000 0.000000 0.000000
vn 1.000000 0.000000 0.000000
vn 1.000000 0.000000 0.000000
vn 0.000000 1.000000 0.000000
vn 0.000000 1.000000 0.000000
vn 0.000000 1.000000 0.000000
vn -1.000000 0.000000 0.000000
vn -1.000000 0.000000 0.000000
vn -1.000000 0.000000 0.000000
vn -1.000000 0.000000 0.000000
vn -1.000000 0.000000 0.000000
vn -1.000000 -0.000000 0.000000
vn -1.000000 -0.000000 0.000000
vn -1.000000 -0.000000 0.000000
vn -1.000000 0.000000 0.000000
vn 0.000000 0.000000 -1.000000
vn 0.000000 0.000000 -1.000000
vn 0.000000 0.000000 -1.000000
vn 0.000000 0.000000 -1.000000
vn 0.000000 0.000000 -1.000000
vn 0.000000 0.000000 -1.000000
vn 0.000000 0.000000 -1.000000
vn 0.000000 0.000000 -1.000000
vn -0.000000 0.000000 -1.000000
vn -0.000000 0.000000 -1.000000
vn -0.000000 0.000000 -1.000000
vn 0.000000 0.000000 -1.000000
vn 0.000000 0.000000 -1.000000
vn 0.000000 0.000000 -1.000000
vn -1.000000 0.000000 0.000000
vn -1.000000 0.000000 0.000000
vn -1.000000 0.000000 0.000000
vn -1.000000 0.000000 0.000000
vn -1.000000 0.000000 0.000000
vn -1.000000 0.000000 0.000000
vn 0.000000 -1.000000 0.000000
vn 0.000000 -1.000000 0.000000
vn 0.000000 -1.000000 0.000000
vn 0.000000 -1.000000 0.000000
vn 0.000000 -1.000000 -0.000000
vn 0.000000 -1.000000 -0.000000
vn 0.000000 -1.000000 -0.000000
vn 0.000000 -1.000000 0.000000
vn 0.000000 -1.000000 0.000000
vn 0.000000 -1.000000 0.000000
vn 0.000000 -1.000000 0.000000
vn 0.000000 -1.000000 0.000000
vn 0.000000 -1.000000 0.000000
vn 0.000000 1.000000 0.000000
vn 0.000000 -1.000000 0.000000
vn -0.000000 0.000000 1.000000
vn 1.000000 0.000000 0.000000
vn 0.000000 0.000000 -1.000000
vn 0.000000 -1.000000 0.000000
vn 0.000000 0.000000 -1.000000
vn 0.000000 -1.000000 0.000000
vn -1.000000 0.000000 0.000000
vn 1.000000 0.000000 0.000000
vn 0.000000 0.000000 1.000000
vn 0.000000 1.000000 0.000000
vn 0.000000 1.000000 0.000000
vn 0.000000 0.000000 1.000000
vn 0.000000 0.000000 1.000000
vn -1.000000 0.000000 0.000000
vn 0.000000 0.000000 1.000000
vn 0.000000 0.000000 1.000000
vn 0.000000 -1.000000 0.000000
vn 0.000000 -1.000000 0.000000
vn 0.000000 -1.000000 0.000000
vn 0.000000 0.000000 1.000000
vn 0.000000 0.000000 1.000000
vn 0.000000 1.000000 0.000000
vn 0.000000 1.000000 0.000000
vn 0.000000 1.000000 0.000000
vn 0.000000 0.000000 -1.000000
vn 0.000000 0.000000 -1.000000
vn 0.000000 0.000000 -1.000000
vn 1.000000 0.000000 0.000000
vn 1.000000 0.000000 0.000000
vn 0.000000 -1.000000 0.000000
vn 0.000000 -1.000000 0.000000
vn 0.000000 1.000000 0.000000
vn 0.000000 1.000000 0.000000
vn 0.000000 1.000000 0.000000
vn 1.000000 0.000000 0.000000
vn 1.000000 0.000000 0.000000
vn -1.000000 0.000000 0.000000
vn -1.000000 0.000000 0.000000
vn -1.000000 0.000000 0.000000
vn 0.000000 1.000000 0.000000
vn 0.000000 1.000000 0.000000
vn 0.000000 1.000000 0.000000
vn 0.000000 0.000000 1.000000
vn 0.000000 0.000000 -1.000000
vn 0.000000 0.000000 -1.000000
vn 0.000000 0.000000 -1.000000
vn 1.000000 0.000000 0.000000
vn 1.000000 0.000000 0.000000
vn 1.000000 0.000000 0.000000
vn 1.000000 0.000000 0.000000
vn 1.000000 0.000000 0.000000
vn 1.000000 0.000000 0.000000
vn 0.000000 1.000000 0.000000
vn 0.000000 1.000000 0.000000
vn 0.000000 -1.000000 0.000000
vn 0.000000 -1.000000 0.000000
vn 0.000000 -1.000000 0.000000
vn -1.000000 0.000000 0.000000
vn -1.000000 0.000000 0.000000
vn 0.000000 0.000000 -1.000000
vn 0.000000 -1.000000 0.000000
vn 0.000000 -1.000000 0.000000
vn -1.000000 0.000000 0.000000
vn 0.000000 0.000000 -1.000000
vn 0.000000 0.000000 -1.000000
vn 0.000000 0.000000 -1.000000
s 1
g pCube5
usemtl initialShadingGroup
f 4/4/1 87/195/2 3/3/3
s 2
f 5/5/4 84/189/5 6/8/6
f 6/8/6 84/189/5 83/187/7
s 3
f 7/9/8 81/183/9 9/12/10
f 9/12/10 81/183/9 80/181/11
s 4
f 9/13/12 77/175/13 7/16/14
s 5
f 12/17/15 75/171/16 4/20/17
f 4/20/17 75/171/16 74/169/18
s 6
f 10/21/19 59/139/20 15/24/21
f 15/24/21 59/139/20 62/145/22
s 7
f 17/26/23 65/151/24 16/25/25
s 8
f 6/28/26 70/161/27 5/27/28
s 9
f 17/29/29 70/162/30 18/32/31
f 18/32/31 70/162/30 76/173/32
s 10
f 10/14/33 82/185/34 11/15/35
s 11
f 19/33/36 65/152/37 17/34/38
s 12
f 15/35/39 88/197/40 10/36/41
f 79/180/42 88/197/40 17/34/43
s 13
f 21/38/44 16/39/45 41/108/46
f 41/108/46 3/40/47 20/37/48
f 20/37/48 3/40/47 50/123/49
f 50/123/49 2/41/50 22/42/51
f 72/166/52 42/109/53 5/44/54
f 52/126/55 2/41/50 84/190/56
s 17
f 43/111/57 62/146/58 13/47/59
f 51/125/60 88/198/61 15/46/62
f 24/48/63 13/47/59 45/115/64
f 45/115/64 12/50/65 20/37/66
f 21/38/67 41/108/68 19/45/69
f 12/50/65 85/192/70 41/108/68
s 21
f 47/117/71 81/184/72 7/53/73
f 23/55/74 42/110/75 8/52/76
f 18/51/77 76/174/78 42/110/75
f 26/54/79 7/53/73 48/119/80
f 77/176/81 11/56/82 48/119/80
f 51/125/83 18/51/77 21/38/84
s 25
f 27/57/85 87/196/86 4/20/87
s 26
f 29/60/88 55/131/89 10/63/90
f 59/140/91 55/131/89 14/62/92
s 27
f 31/64/93 53/127/94 9/65/95
f 78/178/96 53/127/94 10/63/97
s 28
f 32/66/98 74/170/99 14/67/100
s 29
f 6/68/101 83/188/102 34/71/103
f 34/71/103 83/188/102 56/133/104
s 30
f 9/13/105 80/182/106 35/72/107
f 35/72/107 80/182/106 58/137/108
s 31
f 36/73/109 60/141/110 37/76/111
f 37/76/111 60/141/110 61/143/112
s 32
f 30/61/113 64/149/114 14/62/115
s 33
f 36/79/116 67/155/117 66/153/118
f 9/82/119 67/155/117 31/81/120
s 34
f 37/83/121 64/150/122 36/84/123
s 35
f 1/69/124 60/142/125 33/70/126
f 33/70/126 60/142/125 71/163/127
s 36
f 35/87/128 66/154/129 9/12/130
s 37
f 40/90/131 37/91/132 49/121/133
f 61/144/134 28/92/135 49/121/133
f 20/37/136 50/124/137 27/93/138
f 28/92/135 57/136/139 50/124/137
s 40
f 52/126/140 33/96/141 22/42/142
f 56/134/143 33/96/141 52/126/140
f 49/122/144 39/97/145 40/98/146
f 71/164/147 39/97/145 49/122/144
f 23/43/148 47/118/149 34/95/150
f 46/116/151 73/168/152 35/100/153
s 37
f 69/160/154 44/113/155 32/101/156
f 24/48/157 45/115/158 32/101/156
f 27/93/138 54/130/159 45/115/158
s 46
f 44/114/160 30/103/161 24/106/162
f 63/148/163 30/103/161 44/114/160
f 25/105/164 43/112/165 29/104/166
f 40/98/167 46/116/168 38/102/169
f 26/99/170 48/120/171 31/107/172
s 13
f 21/38/44 42/109/53 16/39/45
f 23/43/173 52/126/55 5/44/54
s 40
f 52/126/140 23/43/148 34/95/150
s 17
f 24/48/63 43/111/57 13/47/59
s 46
f 43/112/165 55/132/174 29/104/166
s 17
f 25/49/175 51/125/60 15/46/62
s 21
f 51/125/83 25/49/176 11/56/82
s 37
f 40/90/131 44/113/155 37/91/132
s 46
f 44/114/160 40/98/167 38/102/169
s 40
f 26/99/177 46/116/151 35/100/153
s 46
f 46/116/168 67/156/178 38/102/169
s 21
f 26/54/79 47/117/71 7/53/73
s 40
f 47/118/149 58/138/179 34/95/150
s 21
f 25/49/176 48/119/80 11/56/82
s 46
f 48/120/171 53/128/180 31/107/172
s 37
f 22/94/181 49/121/133 28/92/135
s 40
f 49/122/144 22/42/142 33/96/141
s 37
f 50/124/137 22/94/181 28/92/135
s 40
f 33/96/141 71/164/147 49/122/144
s 37
f 37/91/132 61/144/134 49/121/133
s 21
f 51/125/83 11/56/82 82/186/182
s 40
f 35/100/153 58/138/179 47/118/149
f 47/118/149 26/99/177 35/100/153
s 21
f 7/53/73 77/176/81 48/119/80
f 42/110/75 21/38/84 18/51/77
s 40
f 39/97/145 73/168/152 46/116/151
f 46/116/151 40/98/146 39/97/145
s 46
f 29/104/166 53/128/180 48/120/171
f 48/120/171 25/105/164 29/104/166
s 17
f 41/108/68 20/37/66 12/50/65
s 37
f 44/113/155 24/48/157 32/101/156
s 17
f 45/115/64 13/47/59 75/172/183
s 37
f 45/115/158 20/37/136 27/93/138
s 17
f 19/45/69 88/198/61 51/125/60
f 51/125/60 21/38/67 19/45/69
s 46
f 38/102/169 63/148/163 44/114/160
s 17
f 15/46/62 62/146/58 43/111/57
f 43/111/57 25/49/175 15/46/62
s 46
f 30/103/161 55/132/174 43/112/165
f 43/112/165 24/106/162 30/103/161
s 13
f 52/126/55 22/42/51 2/41/50
s 46
f 31/107/172 67/156/178 46/116/168
f 46/116/168 26/99/170 31/107/172
s 13
f 42/109/53 23/43/173 5/44/54
s 40
f 34/95/150 56/134/143 52/126/140
s 13
f 41/108/46 16/39/45 68/158/184
s 21
f 8/52/76 81/184/72 47/117/71
f 47/117/71 23/55/74 8/52/76
s 13
f 50/123/49 3/40/47 86/194/185
s 31
f 60/141/110 1/74/186 28/75/187
s 12
f 88/197/40 19/33/188 17/34/43
s 2
f 84/189/5 2/6/189 1/7/190
s 11
f 12/17/191 65/152/37 85/191/192
f 65/152/37 12/17/191 4/20/193
s 3
f 81/183/9 8/10/194 6/11/195
s 4
f 10/14/196 77/175/13 78/177/197
f 77/175/13 10/14/196 11/15/198
s 10
f 17/29/199 82/185/34 79/179/200
f 82/185/34 17/29/199 18/32/201
s 5
f 75/171/16 13/18/202 14/19/203
s 9
f 70/162/30 6/30/204 8/31/205
s 36
f 39/88/206 66/154/129 73/167/207
f 66/154/129 39/88/206 36/89/208
s 35
f 60/142/125 36/85/209 39/86/210
s 8
f 16/25/211 70/161/27 17/26/212
f 70/161/27 72/165/213 5/27/28
s 34
f 32/66/214 64/150/122 69/159/215
f 64/150/122 32/66/214 14/67/216
s 33
f 38/80/217 67/155/117 36/79/116
s 7
f 3/3/218 65/151/24 4/4/219
f 65/151/24 68/157/220 16/25/25
s 32
f 38/77/221 64/149/114 63/147/222
f 64/149/114 38/77/221 36/78/223
s 1
f 2/2/224 87/195/2 1/1/225
f 87/195/2 86/193/226 3/3/3
s 6
f 59/139/20 14/22/227 13/23/228
s 25
f 28/58/229 87/196/86 57/135/230
f 87/196/86 28/58/229 1/59/231
s 30
f 80/182/106 6/68/232 34/71/233
s 26
f 55/131/89 30/61/234 14/62/92
s 29
f 83/188/102 1/69/235 33/70/236
s 27
f 53/127/94 29/60/237 10/63/97
s 28
f 27/57/238 74/170/99 54/129/239
f 74/170/99 27/57/238 4/20/240
f 32/66/98 54/129/239 74/170/99
s 37
f 54/130/159 32/101/156 45/115/158
s 29
f 33/70/236 56/133/104 83/188/102
s 25
f 27/57/85 57/135/230 87/196/86
s 37
f 57/136/139 27/93/138 50/124/137
s 30
f 34/71/233 58/137/108 80/182/106
s 26
f 59/140/91 10/63/90 55/131/89
s 31
f 28/75/187 61/143/112 60/141/110
s 6
f 13/23/228 62/145/22 59/139/20
s 32
f 30/61/113 63/147/222 64/149/114
s 33
f 9/82/119 66/153/118 67/155/117
s 7
f 3/3/218 68/157/220 65/151/24
s 13
f 68/158/184 3/40/47 41/108/46
s 34
f 37/83/121 69/159/215 64/150/122
s 37
f 69/160/154 37/91/132 44/113/155
s 35
f 39/86/210 71/163/127 60/142/125
s 8
f 16/25/211 72/165/213 70/161/27
s 13
f 72/166/52 16/39/45 42/109/53
s 36
f 35/87/128 73/167/207 66/154/129
s 5
f 14/19/203 74/169/18 75/171/16
s 17
f 75/172/183 12/50/65 45/115/64
s 9
f 8/31/205 76/173/32 70/162/30
s 21
f 76/174/78 8/52/76 42/110/75
s 4
f 9/13/12 78/177/197 77/175/13
s 27
f 78/178/96 9/65/95 53/127/94
s 10
f 10/14/33 79/179/200 82/185/34
s 12
f 79/180/42 10/36/41 88/197/40
s 3
f 6/11/195 80/181/11 81/183/9
s 21
f 82/186/182 18/51/77 51/125/83
s 2
f 1/7/190 83/187/7 84/189/5
s 13
f 84/190/56 5/44/54 52/126/55
s 11
f 19/33/36 85/191/192 65/152/37
s 17
f 85/192/70 19/45/69 41/108/68
s 1
f 2/2/224 86/193/226 87/195/2
s 13
f 86/194/185 2/41/50 50/123/49
