# This file uses centimeters as units for non-parametric coordinates.

mtllib hole.mtl
g default
v 0.512694 0.216646 -0.512694
v -0.000000 0.216646 -0.725059
v -0.512694 0.216646 -0.512694
v -0.725059 0.216646 -0.000000
v -0.512694 0.216646 0.512694
v -0.000000 0.216646 0.725059
v 0.512694 0.216646 0.512694
v 0.725059 0.216646 -0.000000
v 0.707107 0.216506 -0.707107
v 0.000000 0.216506 -1.000000
v -0.707107 0.216506 -0.707107
v -1.000000 0.216506 0.000000
v -0.707107 0.216506 0.707107
v 0.000000 0.216506 1.000000
v 0.707107 0.216506 0.707107
v 1.000000 0.216506 0.000000
v 0.707107 -0.216506 -0.707107
v 0.000000 -0.216506 -1.000000
v -0.707107 -0.216506 -0.707107
v -1.000000 -0.216506 0.000000
v -0.707107 -0.216506 0.707107
v 0.000000 -0.216506 1.000000
v 0.707107 -0.216506 0.707107
v 1.000000 -0.216506 0.000000
v 0.512694 -0.221816 -0.512694
v -0.000000 -0.221816 -0.725059
v -0.512694 -0.221816 -0.512694
v -0.725059 -0.221816 -0.000000
v -0.512694 -0.221816 0.512694
v -0.000000 -0.221816 0.725059
v 0.512694 -0.221816 0.512694
v 0.725059 -0.221816 -0.000000
vt 0.000000 0.833333
vt 0.125000 0.833333
vt 0.250000 0.833333
vt 0.375000 0.833333
vt 0.500000 0.833333
vt 0.625000 0.833333
vt 0.750000 0.833333
vt 0.875000 0.833333
vt 1.000000 0.833333
vt 0.000000 0.666667
vt 0.125000 0.666667
vt 0.250000 0.666667
vt 0.375000 0.666667
vt 0.500000 0.666667
vt 0.625000 0.666667
vt 0.750000 0.666667
vt 0.875000 0.666667
vt 1.000000 0.666667
vt 0.000000 0.333333
vt 0.125000 0.333333
vt 0.250000 0.333333
vt 0.375000 0.333333
vt 0.500000 0.333333
vt 0.625000 0.333333
vt 0.750000 0.333333
vt 0.875000 0.333333
vt 1.000000 0.333333
vt 0.000000 0.166667
vt 0.125000 0.166667
vt 0.250000 0.166667
vt 0.375000 0.166667
vt 0.500000 0.166667
vt 0.625000 0.166667
vt 0.750000 0.166667
vt 0.875000 0.166667
vt 1.000000 0.166667
vn 0.000210 1.000000 -0.000508
vn 0.000210 1.000000 -0.000508
vn 0.000210 1.000000 -0.000508
vn 0.000210 1.000000 -0.000508
vn -0.000210 1.000000 -0.000508
vn -0.000210 1.000000 -0.000508
vn -0.000210 1.000000 -0.000508
vn -0.000210 1.000000 -0.000508
vn -0.000508 1.000000 -0.000210
vn -0.000508 1.000000 -0.000210
vn -0.000508 1.000000 -0.000210
vn -0.000508 1.000000 -0.000210
vn -0.000508 1.000000 0.000210
vn -0.000508 1.000000 0.000210
vn -0.000508 1.000000 0.000210
vn -0.000508 1.000000 0.000210
vn -0.000210 1.000000 0.000508
vn -0.000210 1.000000 0.000508
vn -0.000210 1.000000 0.000508
vn -0.000210 1.000000 0.000508
vn 0.000210 1.000000 0.000508
vn 0.000210 1.000000 0.000508
vn 0.000210 1.000000 0.000508
vn 0.000210 1.000000 0.000508
vn 0.000508 1.000000 0.000210
vn 0.000508 1.000000 0.000210
vn 0.000508 1.000000 0.000210
vn 0.000508 1.000000 0.000210
vn 0.000508 1.000000 -0.000210
vn 0.000508 1.000000 -0.000210
vn 0.000508 1.000000 -0.000210
vn 0.000508 1.000000 -0.000210
vn 0.382683 -0.000000 -0.923880
vn 0.382683 -0.000000 -0.923880
vn 0.382684 -0.000000 -0.923880
vn 0.382684 -0.000000 -0.923880
vn -0.382683 -0.000000 -0.923880
vn -0.382683 -0.000000 -0.923880
vn -0.382684 -0.000000 -0.923880
vn -0.382684 -0.000000 -0.923880
vn -0.923880 0.000000 -0.382683
vn -0.923880 0.000000 -0.382683
vn -0.923880 0.000000 -0.382683
vn -0.923880 0.000000 -0.382683
vn -0.923880 -0.000000 0.382683
vn -0.923880 -0.000000 0.382683
vn -0.923880 -0.000000 0.382683
vn -0.923880 0.000000 0.382683
vn -0.382683 -0.000000 0.923880
vn -0.382683 -0.000000 0.923880
vn -0.382684 -0.000000 0.923880
vn -0.382684 -0.000000 0.923880
vn 0.382683 -0.000000 0.923880
vn 0.382683 -0.000000 0.923880
vn 0.382683 -0.000000 0.923880
vn 0.382683 -0.000000 0.923880
vn 0.923880 -0.000000 0.382683
vn 0.923880 -0.000000 0.382683
vn 0.923880 -0.000000 0.382683
vn 0.923880 0.000000 0.382683
vn 0.923880 -0.000000 -0.382684
vn 0.923879 -0.000000 -0.382684
vn 0.923879 -0.000000 -0.382684
vn 0.923880 0.000000 -0.382684
vn 0.007998 -0.999782 -0.019309
vn 0.007998 -0.999781 -0.019309
vn 0.007998 -0.999782 -0.019309
vn 0.007998 -0.999781 -0.019309
vn -0.007998 -0.999782 -0.019309
vn -0.007998 -0.999782 -0.019309
vn -0.007998 -0.999782 -0.019309
vn -0.007998 -0.999782 -0.019309
vn -0.019309 -0.999782 -0.007998
vn -0.019309 -0.999782 -0.007998
vn -0.019309 -0.999782 -0.007998
vn -0.019309 -0.999782 -0.007998
vn -0.019309 -0.999782 0.007998
vn -0.019309 -0.999782 0.007998
vn -0.019309 -0.999782 0.007998
vn -0.019309 -0.999782 0.007998
vn -0.007998 -0.999782 0.019309
vn -0.007998 -0.999781 0.019309
vn -0.007998 -0.999782 0.019309
vn -0.007998 -0.999781 0.019309
vn 0.007998 -0.999781 0.019309
vn 0.007998 -0.999781 0.019309
vn 0.007998 -0.999782 0.019309
vn 0.007998 -0.999782 0.019309
vn 0.019309 -0.999782 0.007998
vn 0.019309 -0.999781 0.007998
vn 0.019309 -0.999782 0.007998
vn 0.019309 -0.999781 0.007998
vn 0.019309 -0.999782 -0.007998
vn 0.019309 -0.999782 -0.007998
vn 0.019309 -0.999781 -0.007998
vn 0.019309 -0.999782 -0.007998
vn -0.382683 0.000000 0.923880
vn -0.382683 0.000000 0.923880
vn -0.382683 0.000000 0.923880
vn -0.382684 0.000000 0.923879
vn 0.382683 0.000001 0.923880
vn 0.382683 0.000000 0.923880
vn 0.382683 0.000000 0.923880
vn 0.382683 0.000000 0.923880
vn 0.923880 0.000000 0.382683
vn 0.923880 0.000000 0.382683
vn 0.923880 0.000000 0.382683
vn 0.923880 0.000001 0.382683
vn 0.923880 0.000001 -0.382683
vn 0.923880 0.000000 -0.382683
vn 0.923880 0.000000 -0.382683
vn 0.923880 0.000000 -0.382683
vn 0.382683 0.000000 -0.923880
vn 0.382684 0.000000 -0.923880
vn 0.382683 0.000000 -0.923880
vn 0.382683 0.000000 -0.923880
vn -0.382684 0.000000 -0.923880
vn -0.382683 0.000000 -0.923880
vn -0.382683 0.000000 -0.923880
vn -0.382683 0.000000 -0.923880
vn -0.923879 0.000000 -0.382684
vn -0.923880 0.000000 -0.382684
vn -0.923880 0.000000 -0.382684
vn -0.923880 -0.000000 -0.382683
vn -0.923880 0.000000 0.382684
vn -0.923879 0.000000 0.382684
vn -0.923879 0.000000 0.382684
vn -0.923880 0.000000 0.382683
s 1
g pTorus1
usemtl initialShadingGroup
f 2/2/1 1/1/2 10/11/3
f 10/11/3 1/1/2 9/10/4
s 2
f 3/3/5 2/2/6 11/12/7
f 11/12/7 2/2/6 10/11/8
s 3
f 4/4/9 3/3/10 12/13/11
f 12/13/11 3/3/10 11/12/12
s 4
f 5/5/13 4/4/14 13/14/15
f 13/14/15 4/4/14 12/13/16
s 5
f 6/6/17 5/5/18 14/15/19
f 14/15/19 5/5/18 13/14/20
s 6
f 7/7/21 6/6/22 15/16/23
f 15/16/23 6/6/22 14/15/24
s 7
f 8/8/25 7/7/26 16/17/27
f 16/17/27 7/7/26 15/16/28
s 8
f 1/9/29 8/8/30 9/18/31
f 9/18/31 8/8/30 16/17/32
s 9
f 10/11/33 9/10/34 18/20/35
f 18/20/35 9/10/34 17/19/36
s 10
f 11/12/37 10/11/38 19/21/39
f 19/21/39 10/11/38 18/20/40
s 11
f 12/13/41 11/12/42 20/22/43
f 20/22/43 11/12/42 19/21/44
s 12
f 13/14/45 12/13/46 21/23/47
f 21/23/47 12/13/46 20/22/48
s 13
f 14/15/49 13/14/50 22/24/51
f 22/24/51 13/14/50 21/23/52
s 14
f 15/16/53 14/15/54 23/25/55
f 23/25/55 14/15/54 22/24/56
s 15
f 16/17/57 15/16/58 24/26/59
f 24/26/59 15/16/58 23/25/60
s 16
f 9/18/61 16/17/62 17/27/63
f 17/27/63 16/17/62 24/26/64
s 17
f 18/20/65 17/19/66 26/29/67
f 26/29/67 17/19/66 25/28/68
s 18
f 19/21/69 18/20/70 27/30/71
f 27/30/71 18/20/70 26/29/72
s 19
f 20/22/73 19/21/74 28/31/75
f 28/31/75 19/21/74 27/30/76
s 20
f 21/23/77 20/22/78 29/32/79
f 29/32/79 20/22/78 28/31/80
s 21
f 22/24/81 21/23/82 30/33/83
f 30/33/83 21/23/82 29/32/84
s 22
f 23/25/85 22/24/86 31/34/87
f 31/34/87 22/24/86 30/33/88
s 23
f 24/26/89 23/25/90 32/35/91
f 32/35/91 23/25/90 31/34/92
s 24
f 17/27/93 24/26/94 25/36/95
f 25/36/95 24/26/94 32/35/96
s 25
f 2/2/97 26/29/98 1/1/99
f 1/1/99 26/29/98 25/28/100
s 26
f 3/3/101 27/30/102 2/2/103
f 2/2/103 27/30/102 26/29/104
s 27
f 4/4/105 28/31/106 3/3/107
f 3/3/107 28/31/106 27/30/108
s 28
f 5/5/109 29/32/110 4/4/111
f 4/4/111 29/32/110 28/31/112
s 29
f 6/6/113 30/33/114 5/5/115
f 5/5/115 30/33/114 29/32/116
s 30
f 7/7/117 31/34/118 6/6/119
f 6/6/119 31/34/118 30/33/120
s 31
f 8/8/121 32/35/122 7/7/123
f 7/7/123 32/35/122 31/34/124
s 32
f 1/9/125 25/36/126 8/8/127
f 8/8/127 25/36/126 32/35/128
