# This file uses centimeters as units for non-parametric coordinates.

mtllib randomArrow.mtl
g default
v -0.210000 -0.250000 0.700000
v 0.210000 -0.250000 0.700000
v -0.210000 0.250000 0.700000
v 0.210000 0.250000 0.700000
v -0.210000 0.250000 -0.185209
v 0.210000 0.250000 -0.185209
v 0.000000 0.250000 -0.700000
v 0.000000 -0.250000 -0.700000
v -0.210000 -0.250000 -0.185209
v 0.210000 -0.250000 -0.185209
v 0.000000 -0.250000 -0.700000
v 0.448325 -0.250000 -0.185209
v 0.000000 0.250000 -0.700000
v 0.448325 0.250000 -0.185209
v -0.448325 -0.250000 -0.185209
v -0.448325 0.250000 -0.185209
vt 0.375000 0.000000
vt 0.625000 0.000000
vt 0.375000 0.250000
vt 0.625000 0.250000
vt 0.375000 0.375000
vt 0.625000 0.375000
vt 0.500000 0.500000
vt 0.500000 0.750000
vt 0.625000 0.875000
vt 0.375000 0.875000
vt 0.375000 1.000000
vt 0.625000 1.000000
vt 0.750000 0.000000
vt 0.875000 0.000000
vt 0.750000 0.250000
vt 0.875000 0.250000
vt 0.750000 0.000000
vt 0.750000 0.250000
vt 0.125000 0.000000
vt 0.250000 0.000000
vt 0.125000 0.250000
vt 0.250000 0.250000
vt 0.250000 0.000000
vt 0.250000 0.250000
vt 0.875000 0.000000
vt 0.875000 0.250000
vt 0.125000 0.000000
vt 0.125000 0.250000
vn 0.000000 0.000000 1.000000
vn 0.000000 0.000000 1.000000
vn 0.000000 0.000000 1.000000
vn 0.000000 0.000000 1.000000
vn 0.000000 0.000000 1.000000
vn 0.000000 0.000000 1.000000
vn 0.000000 1.000000 0.000000
vn 0.000000 1.000000 0.000000
vn 0.000000 1.000000 0.000000
vn 0.000000 1.000000 0.000000
vn 0.000000 1.000000 0.000000
vn 0.000000 1.000000 0.000000
vn 0.000000 1.000000 0.000000
vn 0.000000 1.000000 0.000000
vn 0.000000 1.000000 0.000000
vn 0.000000 -1.000000 0.000000
vn 0.000000 -1.000000 0.000000
vn 0.000000 -1.000000 0.000000
vn 0.000000 -1.000000 0.000000
vn 0.000000 -1.000000 0.000000
vn 0.000000 -1.000000 0.000000
vn 0.000000 -1.000000 0.000000
vn 0.000000 -1.000000 0.000000
vn 0.000000 -1.000000 0.000000
vn 0.754112 0.000000 -0.656746
vn 0.754111 0.000000 -0.656747
vn 0.754112 0.000000 -0.656746
vn 0.754112 0.000000 -0.656746
vn 0.754111 0.000000 -0.656747
vn 0.754111 0.000000 -0.656747
vn 1.000000 0.000000 0.000000
vn 1.000000 0.000000 0.000000
vn 1.000000 0.000000 0.000000
vn 1.000000 0.000000 0.000000
vn 1.000000 0.000000 0.000000
vn 1.000000 0.000000 0.000000
vn -0.754111 0.000000 -0.656747
vn -0.754112 0.000000 -0.656746
vn -0.754111 0.000000 -0.656747
vn -0.754111 0.000000 -0.656747
vn -0.754112 0.000000 -0.656746
vn -0.754112 0.000000 -0.656746
vn -1.000000 0.000000 0.000000
vn -1.000000 0.000000 0.000000
vn -1.000000 0.000000 0.000000
vn -1.000000 0.000000 0.000000
vn -1.000000 0.000000 0.000000
vn -1.000000 0.000000 0.000000
vn 0.000000 0.000000 0.000000
vn 0.000000 -1.000000 0.000000
vn 0.000000 -1.000000 0.000000
vn 0.000000 -1.000000 0.000000
vn 0.000000 -1.000000 0.000000
vn 0.000000 -1.000000 0.000000
vn 0.000000 0.000000 0.000000
vn 0.000000 1.000000 0.000000
vn 0.000000 1.000000 0.000000
vn 0.000000 1.000000 0.000000
vn 0.000000 1.000000 0.000000
vn 0.000000 1.000000 0.000000
vn 0.000000 0.000000 1.000000
vn 0.000000 0.000000 1.000000
vn 0.000000 0.000000 1.000000
vn 0.000000 0.000000 1.000000
vn 0.000000 0.000000 1.000000
vn 0.000000 0.000000 1.000000
vn 0.000000 0.000000 0.000000
vn 0.000000 -1.000000 0.000000
vn 0.000000 -1.000000 0.000000
vn 0.000000 -1.000000 0.000000
vn 0.000000 -1.000000 0.000000
vn 0.000000 -1.000000 0.000000
vn 0.000000 0.000000 1.000000
vn 0.000000 0.000000 1.000000
vn 0.000000 0.000000 1.000000
vn 0.000000 0.000000 1.000000
vn 0.000000 0.000000 1.000000
vn 0.000000 0.000000 1.000000
vn 0.000000 0.000000 0.000000
vn 0.000000 1.000000 0.000000
vn 0.000000 1.000000 0.000000
vn 0.000000 1.000000 0.000000
vn 0.000000 1.000000 0.000000
vn 0.000000 1.000000 0.000000
s off
g ReverseEnemy:pCube1
usemtl initialShadingGroup
f 1/1/1 2/2/2 3/3/3
f 3/3/4 2/2/5 4/4/6
f 3/3/7 4/4/8 5/5/9
f 5/5/10 4/4/11 6/6/12
f 5/5/13 6/6/14 7/7/15
f 8/8/16 10/9/17 9/10/18
f 9/10/19 10/9/20 1/11/21
f 1/11/22 10/9/23 2/12/24
f 12/13/25 11/14/26 14/15/27
f 14/15/28 11/14/29 13/16/30
f 2/2/31 10/17/32 4/4/33
f 4/4/34 10/17/35 6/18/36
f 11/19/37 15/20/38 13/21/39
f 13/21/40 15/20/41 16/22/42
f 9/23/43 1/1/44 5/24/45
f 5/24/46 1/1/47 3/3/48
f 11/14/49 12/13/50 8/25/51
f 10/17/52 8/25/53 12/13/54
f 13/16/55 7/26/56 14/15/57
f 7/26/58 6/18/59 14/15/60
f 6/18/61 10/17/62 14/15/63
f 14/15/64 10/17/65 12/13/66
f 11/19/67 8/27/68 15/20/69
f 8/27/70 9/23/71 15/20/72
f 9/23/73 5/24/74 15/20/75
f 15/20/76 5/24/77 16/22/78
f 13/21/79 16/22/80 7/28/81
f 5/24/82 7/28/83 16/22/84
