# This file uses centimeters as units for non-parametric coordinates.

mtllib randomCube.mtl
g default
v -1.000000 -0.250000 -1.000000
v -0.800000 -0.250000 -0.000000
v -0.739104 -0.250000 0.306146
v -0.565686 -0.250000 0.565685
v -0.306147 -0.250000 0.739103
v -0.000000 -0.250000 0.800000
v 0.306147 -0.250000 0.739104
v 0.565685 -0.250000 0.565685
v 0.739104 -0.250000 0.306147
v 1.000000 -0.250000 -1.000000
v 1.000000 -0.250000 1.000000
v -1.000000 -0.250000 1.000000
v -0.565686 0.250000 0.565685
v -0.306147 0.250000 0.739103
v 0.565686 -0.250000 -0.565685
v 0.739104 -0.250000 -0.306146
v 0.739104 0.250000 -0.306146
v 0.565686 0.250000 -0.565685
v -0.000000 0.250000 0.800000
v 0.800000 -0.250000 0.000000
v 0.800000 0.250000 0.000000
v 0.306147 0.250000 0.739104
v 0.739104 0.250000 0.306147
v 1.000000 0.250000 -1.000000
v 1.000000 0.250000 1.000000
v -1.000000 0.250000 1.000000
v 0.565685 0.250000 0.565685
v -0.739104 0.250000 0.306146
v -0.800000 0.250000 -0.000000
v -1.000000 0.250000 -1.000000
v 0.306147 -0.250000 -0.739103
v 0.306147 0.250000 -0.739103
v 0.000000 -0.250000 -0.800000
v 0.000000 0.250000 -0.800000
v -0.739103 0.250000 -0.306147
v -0.565685 0.250000 -0.565686
v -0.306146 0.250000 -0.739104
v -0.306146 -0.250000 -0.739104
v -0.739103 -0.250000 -0.306147
v -0.565685 -0.250000 -0.565686
vt 0.375000 0.750000
vt 0.400000 0.875000
vt 0.407612 0.913268
vt 0.429289 0.945711
vt 0.461732 0.967388
vt 0.500000 0.975000
vt 0.538268 0.967388
vt 0.570711 0.945711
vt 0.592388 0.913268
vt 0.625000 0.750000
vt 0.625000 1.000000
vt 0.375000 1.000000
vt 0.531250 0.453477
vt 0.515625 0.453477
vt 0.515625 0.547462
vt 0.531250 0.547462
vt 0.390625 0.453477
vt 0.375000 0.453477
vt 0.375000 0.547462
vt 0.390625 0.547462
vt 0.546875 0.453477
vt 0.546875 0.547462
vt 0.625000 0.453477
vt 0.609375 0.453477
vt 0.609375 0.547462
vt 0.625000 0.547462
vt 0.562500 0.453477
vt 0.562500 0.547462
vt 0.593750 0.453477
vt 0.593750 0.547462
vt 0.625000 0.000000
vt 0.875000 0.000000
vt 0.875000 0.250000
vt 0.625000 0.250000
vt 0.375000 0.000000
vt 0.375000 0.250000
vt 0.578125 0.453477
vt 0.578125 0.547462
vt 0.600000 0.375000
vt 0.592388 0.336732
vt 0.570711 0.304289
vt 0.538268 0.282612
vt 0.500000 0.275000
vt 0.461732 0.282612
vt 0.429289 0.304289
vt 0.407612 0.336732
vt 0.400000 0.375000
vt 0.375000 0.500000
vt 0.406250 0.453477
vt 0.406250 0.547462
vt 0.500000 0.453477
vt 0.500000 0.547462
vt 0.421875 0.453477
vt 0.421875 0.547462
vt 0.484375 0.453477
vt 0.484375 0.547462
vt 0.625000 0.500000
vt 0.407612 0.413268
vt 0.429289 0.445711
vt 0.461732 0.467388
vt 0.500000 0.475000
vt 0.538268 0.467388
vt 0.570711 0.445711
vt 0.592388 0.413268
vt 0.437500 0.453477
vt 0.437500 0.547462
vt 0.468750 0.453477
vt 0.468750 0.547462
vt 0.125000 0.000000
vt 0.125000 0.250000
vt 0.453125 0.453477
vt 0.453125 0.547462
vt 0.600000 0.875000
vt 0.592388 0.836732
vt 0.570711 0.804289
vt 0.538268 0.782612
vt 0.500000 0.775000
vt 0.461732 0.782612
vt 0.429289 0.804289
vt 0.407612 0.836732
vn 0.000000 -1.000000 0.000000
vn 0.000000 -1.000000 0.000000
vn 0.000000 -1.000000 -0.000000
vn 0.000000 -1.000000 0.000000
vn 0.000000 -1.000000 0.000000
vn 0.000000 -1.000000 -0.000000
vn 0.000000 -1.000000 0.000000
vn 0.000000 -1.000000 -0.000000
vn 0.000000 -1.000000 -0.000000
vn 0.000000 -1.000000 -0.000000
vn 0.000000 -1.000000 -0.000004
vn 0.000000 -1.000000 0.000000
vn 0.382684 0.000000 -0.923880
vn 0.707107 0.000000 -0.707107
vn 0.382684 0.000000 -0.923879
vn 0.707107 0.000000 -0.707107
vn -0.707107 0.000000 0.707106
vn -0.923880 0.000000 0.382683
vn -0.707107 0.000000 0.707106
vn -0.923880 0.000000 0.382683
vn 0.000000 0.000000 -1.000000
vn 0.000000 0.000000 -1.000000
vn -1.000000 0.000000 -0.000000
vn -1.000000 0.000000 -0.000000
vn -0.382683 0.000000 -0.923880
vn -0.382683 0.000000 -0.923880
vn -0.923880 0.000000 -0.382684
vn -0.923880 0.000000 -0.382684
vn 1.000000 0.000000 0.000000
vn 1.000000 0.000000 0.000000
vn 1.000000 0.000000 0.000000
vn 1.000000 0.000000 0.000000
vn 0.000000 0.000000 1.000000
vn 0.000000 0.000000 1.000000
vn 0.000000 0.000000 1.000000
vn 0.000000 0.000000 1.000000
vn -0.707107 0.000000 -0.707107
vn -0.707107 0.000000 -0.707107
vn 0.000000 1.000000 0.000000
vn 0.000000 1.000000 -0.000000
vn 0.000000 1.000000 -0.000000
vn 0.000000 1.000000 0.000000
vn 0.000000 1.000000 0.000000
vn 0.000000 1.000000 -0.000000
vn 0.000000 1.000000 0.000000
vn 0.000000 1.000000 -0.000000
vn 0.000000 1.000000 -0.000000
vn 0.000000 1.000000 0.000000
vn 0.000000 1.000000 0.000000
vn 0.000000 1.000000 0.000000
vn -0.382684 0.000000 0.923879
vn -0.382684 0.000000 0.923879
vn 0.923880 0.000000 -0.382683
vn 0.923880 0.000000 -0.382683
vn -0.000001 0.000000 1.000000
vn -0.000000 0.000000 1.000000
vn 1.000000 0.000000 0.000000
vn 1.000000 0.000000 0.000000
vn 0.000000 1.000000 0.000000
vn 0.000000 1.000000 -0.000000
vn 0.000000 1.000000 -0.000000
vn 0.000000 1.000000 0.000000
vn 0.000000 1.000000 0.000000
vn 0.000000 1.000000 0.000000
vn 0.000000 1.000000 0.000000
vn 0.000000 1.000000 0.000000
vn 0.382683 0.000000 0.923880
vn 0.382683 0.000000 0.923880
vn 0.923879 0.000000 0.382684
vn 0.923879 0.000000 0.382684
vn -1.000000 0.000000 0.000000
vn -1.000000 0.000000 0.000000
vn -1.000000 0.000000 0.000000
vn -1.000000 0.000000 0.000000
vn 0.000000 0.000000 -1.000000
vn 0.000000 0.000000 -1.000000
vn 0.000000 0.000000 -1.000000
vn 0.000000 0.000000 -1.000000
vn 0.707106 0.000000 0.707107
vn 0.707106 0.000000 0.707107
vn 0.000000 -1.000000 -0.000000
vn 0.000000 -1.000000 -0.000000
vn 0.000000 -1.000000 -0.000000
vn 0.000000 -1.000000 0.000000
vn 0.000000 -1.000000 0.000000
vn 0.000000 -1.000000 0.000000
vn 0.000000 -1.000000 0.000004
vn 0.000000 -1.000000 0.000000
s 1
g pCube10
usemtl initialShadingGroup
f 1/1/1 2/2/2 12/12/3
f 10/10/4 11/11/5 9/9/6
f 2/2/2 3/3/7 12/12/3
f 3/3/7 4/4/8 12/12/3
f 9/9/6 11/11/5 8/8/9
f 4/4/8 5/5/10 12/12/3
f 12/12/3 5/5/10 11/11/5
f 5/5/10 6/6/11 11/11/5
f 6/6/11 7/7/12 11/11/5
f 7/7/12 8/8/9 11/11/5
s 3
f 5/13/13 4/14/14 14/16/15
f 14/16/15 4/14/14 13/15/16
f 15/17/17 16/18/18 18/20/19
f 18/20/19 16/18/18 17/19/20
f 6/21/21 5/13/13 19/22/22
f 19/22/22 5/13/13 14/16/15
f 16/23/18 20/24/23 17/26/20
f 17/26/20 20/24/23 21/25/24
f 7/27/25 6/21/21 22/28/26
f 22/28/26 6/21/21 19/22/22
f 20/24/23 9/29/27 21/25/24
f 21/25/24 9/29/27 23/30/28
s 5
f 11/31/29 10/32/30 25/34/31
f 25/34/31 10/32/30 24/33/32
s 6
f 12/35/33 11/31/34 26/36/35
f 26/36/35 11/31/34 25/34/36
s 3
f 8/37/37 7/27/25 27/38/38
f 27/38/38 7/27/25 22/28/26
f 9/29/27 8/37/37 23/30/28
f 23/30/28 8/37/37 27/38/38
s 7
f 30/48/39 26/36/40 29/47/41
f 21/39/42 23/40/43 25/34/44
f 29/47/41 26/36/40 28/46/45
f 23/40/43 27/41/46 25/34/44
f 28/46/45 26/36/40 13/45/47
f 27/41/46 22/42/48 25/34/44
f 25/34/44 22/42/48 26/36/40
f 22/42/48 19/43/49 26/36/40
f 19/43/49 14/44/50 26/36/40
f 26/36/40 14/44/50 13/45/47
s 3
f 31/49/51 15/17/17 32/50/52
f 32/50/52 15/17/17 18/20/19
f 4/14/14 3/51/53 13/15/16
f 13/15/16 3/51/53 28/52/54
f 33/53/55 31/49/51 34/54/56
f 34/54/56 31/49/51 32/50/52
f 3/51/53 2/55/57 28/52/54
f 28/52/54 2/55/57 29/56/58
s 7
f 25/34/44 24/57/59 21/39/42
f 29/47/41 35/58/60 30/48/39
f 21/39/42 24/57/59 17/64/61
f 35/58/60 36/59/62 30/48/39
f 17/64/61 24/57/59 18/63/63
f 36/59/62 37/60/64 30/48/39
f 30/48/39 37/60/64 24/57/59
f 37/60/64 34/61/65 24/57/59
f 34/61/65 32/62/66 24/57/59
f 24/57/59 32/62/66 18/63/63
s 3
f 38/65/67 33/53/55 37/66/68
f 37/66/68 33/53/55 34/54/56
f 2/55/57 39/67/69 29/56/58
f 29/56/58 39/67/69 35/68/70
s 9
f 1/69/71 12/35/72 30/70/73
f 30/70/73 12/35/72 26/36/74
s 10
f 30/48/75 24/57/76 1/1/77
f 1/1/77 24/57/76 10/10/78
s 3
f 40/71/79 38/65/67 36/72/80
f 36/72/80 38/65/67 37/66/68
f 39/67/69 40/71/79 35/68/70
f 35/68/70 40/71/79 36/72/80
s 1
f 9/9/6 20/73/81 10/10/4
f 20/73/81 16/74/82 10/10/4
f 2/2/2 1/1/1 39/80/83
f 16/74/82 15/75/84 10/10/4
f 39/80/83 1/1/1 40/79/85
f 15/75/84 31/76/86 10/10/4
f 10/10/4 31/76/86 1/1/1
f 31/76/86 33/77/87 1/1/1
f 33/77/87 38/78/88 1/1/1
f 38/78/88 40/79/85 1/1/1
