# This file uses centimeters as units for non-parametric coordinates.

mtllib Shot.mtl
g default
v 0.000000 0.100000 -0.500000
v -0.100000 0.000000 -0.500000
v -0.000000 -0.100000 -0.500000
v 0.100000 0.000000 -0.500000
v 0.000000 0.100000 0.500000
v -0.100000 0.000000 0.500000
v -0.000000 -0.100000 0.500000
v 0.100000 0.000000 0.500000
v 0.000000 0.000000 -0.500000
v 0.000000 0.000000 0.500000
vt 0.500000 0.000000
vt 0.343750 0.156250
vt 0.500000 0.312500
vt 0.656250 0.156250
vt 0.375000 0.312500
vt 0.437500 0.312500
vt 0.500000 0.312500
vt 0.562500 0.312500
vt 0.625000 0.312500
vt 0.375000 0.688440
vt 0.437500 0.688440
vt 0.500000 0.688440
vt 0.562500 0.688440
vt 0.625000 0.688440
vt 0.500000 0.687500
vt 0.343750 0.843750
vt 0.500000 1.000000
vt 0.656250 0.843750
vt 0.500000 0.150000
vt 0.500000 0.837500
vn -0.707107 0.707107 0.000000
vn -0.707107 0.707107 0.000000
vn -0.707107 0.707107 0.000000
vn -0.707107 0.707107 0.000000
vn -0.707107 -0.707107 0.000000
vn -0.707107 -0.707107 0.000000
vn -0.707107 -0.707107 0.000000
vn -0.707107 -0.707107 0.000000
vn 0.707107 -0.707107 0.000000
vn 0.707107 -0.707107 0.000000
vn 0.707107 -0.707107 0.000000
vn 0.707107 -0.707107 0.000000
vn 0.707107 0.707107 0.000000
vn 0.707107 0.707107 0.000000
vn 0.707107 0.707107 0.000000
vn 0.707107 0.707107 0.000000
vn 0.000000 -0.000000 -1.000000
vn 0.000000 -0.000000 -1.000000
vn 0.000000 -0.000000 -1.000000
vn 0.000000 -0.000000 -1.000000
vn 0.000000 -0.000000 -1.000000
vn 0.000000 0.000000 1.000000
vn 0.000000 0.000000 1.000000
vn 0.000000 -0.000000 1.000000
vn 0.000000 -0.000000 1.000000
vn 0.000000 -0.000000 1.000000
s 1
g pCylinder1
usemtl initialShadingGroup
f 1/5/1 2/6/2 5/10/3
f 5/10/3 2/6/2 6/11/4
s 2
f 2/6/5 3/7/6 6/11/7
f 6/11/7 3/7/6 7/12/8
s 3
f 3/7/9 4/8/10 7/12/11
f 7/12/11 4/8/10 8/13/12
s 4
f 4/8/13 1/9/14 8/13/15
f 8/13/15 1/9/14 5/14/16
s 5
f 2/2/17 1/1/18 9/19/19
f 3/3/20 2/2/17 9/19/19
f 4/4/21 3/3/20 9/19/19
f 1/1/18 4/4/21 9/19/19
s 6
f 5/17/22 6/16/23 10/20/24
f 6/16/23 7/15/25 10/20/24
f 7/15/25 8/18/26 10/20/24
f 8/18/26 5/17/22 10/20/24
